<mxfile host="app.diagrams.net" modified="2021-09-27T06:38:03.877Z" agent="5.0 (Windows NT 10.0; Win64; x64) AppleWebKit/537.36 (KHTML, like Gecko) Chrome/93.0.4577.82 Safari/537.36" etag="MBGUiNiUrLZZJn4kYEd-" version="15.3.4" type="github">
  <diagram id="MO2Bvyn2_-JSokNNpkE6" name="Page-1">
    <mxGraphModel dx="1483" dy="827" grid="1" gridSize="10" guides="1" tooltips="1" connect="1" arrows="1" fold="1" page="1" pageScale="1" pageWidth="3000" pageHeight="3000" math="0" shadow="0">
      <root>
        <mxCell id="0" />
        <mxCell id="1" parent="0" />
        <mxCell id="xLc4NqqJEeSbFSuvH_Aq-7" value="" style="edgeStyle=none;curved=1;rounded=0;orthogonalLoop=1;jettySize=auto;html=1;endArrow=open;startSize=14;endSize=14;sourcePerimeterSpacing=8;targetPerimeterSpacing=8;" edge="1" parent="1" source="xLc4NqqJEeSbFSuvH_Aq-1" target="xLc4NqqJEeSbFSuvH_Aq-2">
          <mxGeometry relative="1" as="geometry" />
        </mxCell>
        <mxCell id="xLc4NqqJEeSbFSuvH_Aq-1" value="Включение кондиционера" style="rounded=1;whiteSpace=wrap;html=1;hachureGap=4;pointerEvents=0;" vertex="1" parent="1">
          <mxGeometry x="370" y="60" width="120" height="60" as="geometry" />
        </mxCell>
        <mxCell id="xLc4NqqJEeSbFSuvH_Aq-8" value="" style="edgeStyle=none;curved=1;rounded=0;orthogonalLoop=1;jettySize=auto;html=1;endArrow=open;startSize=14;endSize=14;sourcePerimeterSpacing=8;targetPerimeterSpacing=8;" edge="1" parent="1" source="xLc4NqqJEeSbFSuvH_Aq-2" target="xLc4NqqJEeSbFSuvH_Aq-4">
          <mxGeometry relative="1" as="geometry" />
        </mxCell>
        <mxCell id="xLc4NqqJEeSbFSuvH_Aq-2" value="Анализ температуры в комнате" style="rounded=1;whiteSpace=wrap;html=1;hachureGap=4;pointerEvents=0;" vertex="1" parent="1">
          <mxGeometry x="370" y="160" width="120" height="60" as="geometry" />
        </mxCell>
        <mxCell id="xLc4NqqJEeSbFSuvH_Aq-9" value="" style="edgeStyle=none;curved=1;rounded=0;orthogonalLoop=1;jettySize=auto;html=1;endArrow=open;startSize=14;endSize=14;sourcePerimeterSpacing=8;targetPerimeterSpacing=8;" edge="1" parent="1" source="xLc4NqqJEeSbFSuvH_Aq-4" target="xLc4NqqJEeSbFSuvH_Aq-5">
          <mxGeometry relative="1" as="geometry" />
        </mxCell>
        <mxCell id="xLc4NqqJEeSbFSuvH_Aq-10" value="" style="edgeStyle=none;curved=1;rounded=0;orthogonalLoop=1;jettySize=auto;html=1;endArrow=open;startSize=14;endSize=14;sourcePerimeterSpacing=8;targetPerimeterSpacing=8;" edge="1" parent="1" source="xLc4NqqJEeSbFSuvH_Aq-4" target="xLc4NqqJEeSbFSuvH_Aq-6">
          <mxGeometry relative="1" as="geometry" />
        </mxCell>
        <mxCell id="xLc4NqqJEeSbFSuvH_Aq-4" value="Есть выставленная желаемая температура в комнате?" style="rhombus;whiteSpace=wrap;html=1;hachureGap=4;pointerEvents=0;" vertex="1" parent="1">
          <mxGeometry x="350" y="270" width="160" height="160" as="geometry" />
        </mxCell>
        <mxCell id="xLc4NqqJEeSbFSuvH_Aq-12" value="" style="edgeStyle=none;curved=1;rounded=0;orthogonalLoop=1;jettySize=auto;html=1;endArrow=open;startSize=14;endSize=14;sourcePerimeterSpacing=8;targetPerimeterSpacing=8;" edge="1" parent="1" source="xLc4NqqJEeSbFSuvH_Aq-5" target="xLc4NqqJEeSbFSuvH_Aq-11">
          <mxGeometry relative="1" as="geometry" />
        </mxCell>
        <mxCell id="xLc4NqqJEeSbFSuvH_Aq-5" value="Нет" style="rounded=0;whiteSpace=wrap;html=1;hachureGap=4;pointerEvents=0;" vertex="1" parent="1">
          <mxGeometry x="150" y="320" width="120" height="60" as="geometry" />
        </mxCell>
        <mxCell id="xLc4NqqJEeSbFSuvH_Aq-15" value="" style="edgeStyle=none;curved=1;rounded=0;orthogonalLoop=1;jettySize=auto;html=1;endArrow=open;startSize=14;endSize=14;sourcePerimeterSpacing=8;targetPerimeterSpacing=8;" edge="1" parent="1" source="xLc4NqqJEeSbFSuvH_Aq-6" target="xLc4NqqJEeSbFSuvH_Aq-13">
          <mxGeometry relative="1" as="geometry" />
        </mxCell>
        <mxCell id="xLc4NqqJEeSbFSuvH_Aq-6" value="Да" style="rounded=0;whiteSpace=wrap;html=1;hachureGap=4;pointerEvents=0;" vertex="1" parent="1">
          <mxGeometry x="370" y="600" width="120" height="60" as="geometry" />
        </mxCell>
        <mxCell id="xLc4NqqJEeSbFSuvH_Aq-14" value="" style="edgeStyle=none;curved=1;rounded=0;orthogonalLoop=1;jettySize=auto;html=1;endArrow=open;startSize=14;endSize=14;sourcePerimeterSpacing=8;targetPerimeterSpacing=8;" edge="1" parent="1" source="xLc4NqqJEeSbFSuvH_Aq-11" target="xLc4NqqJEeSbFSuvH_Aq-13">
          <mxGeometry relative="1" as="geometry" />
        </mxCell>
        <mxCell id="xLc4NqqJEeSbFSuvH_Aq-11" value="Просьба выставить температуру от 16 до 26 градусов" style="rounded=0;whiteSpace=wrap;html=1;hachureGap=4;pointerEvents=0;" vertex="1" parent="1">
          <mxGeometry x="150" y="450" width="120" height="60" as="geometry" />
        </mxCell>
        <mxCell id="xLc4NqqJEeSbFSuvH_Aq-13" value="Включение климат контроля на выставленную температуру" style="rounded=0;whiteSpace=wrap;html=1;hachureGap=4;pointerEvents=0;" vertex="1" parent="1">
          <mxGeometry x="145" y="600" width="130" height="60" as="geometry" />
        </mxCell>
      </root>
    </mxGraphModel>
  </diagram>
</mxfile>
